<svg width="27" height="23" viewBox="0 0 27 23" fill="none" xmlns="http://www.w3.org/2000/svg">
  <path d="M23.9429 3.86203C23.903 4.76334 23.0017 5.48461 21.8894 5.48461C20.7769 5.48461 19.8735 4.76334 19.8359 3.86203H15.7418C15.702 4.76334 14.8021 5.48461 13.6884 5.48461C12.5759 5.48461 11.6754 4.76334 11.6374 3.86203H7.50368C7.46656 4.76334 6.56353 5.48461 5.45105 5.48461C4.33666 5.48461 3.43702 4.76334 3.3982 3.86203H0V19.1378H3.3982C3.43702 18.2363 4.33666 17.5152 5.45105 17.5152C6.56374 17.5152 7.46656 18.2365 7.50368 19.1378H11.6372C11.6752 18.2363 12.5757 17.5152 13.6882 17.5152C14.8019 17.5152 15.7018 18.2365 15.7416 19.1378H19.8355C19.8733 18.2363 20.7765 17.5152 21.889 17.5152C23.0013 17.5152 23.9026 18.2365 23.9425 19.1378H27V3.86203H23.9429Z" fill="#F5B146"/>
  <path d="M4.58679 11.6659H21.473V14.6156H4.58679V11.6659Z" fill="#E5226B"/>
  <path d="M4.58679 8.5285H11.9477V10.0037H4.58679V8.5285Z" fill="#0092D2"/>
  <path d="M4.59741 9.16818H11.9353V10.0035H4.59741V9.16818Z" fill="#0085BF"/>
  <path d="M4.59741 13.1055H21.496V14.6156H4.59741V13.1055Z" fill="#C9005B"/>
</svg>